<?xml version="1.0" encoding="iso-8859-1"?>
<!-- Generator: Adobe Illustrator 19.0.0, SVG Export Plug-In . SVG Version: 6.00 Build 0)  -->
<svg xmlns="http://www.w3.org/2000/svg" xmlns:xlink="http://www.w3.org/1999/xlink" version="1.1" id="Layer_1" x="0px" y="0px" viewBox="0 0 497 497" style="enable-background:new 0 0 497 497;" xml:space="preserve" width="512" height="512">
<g>
	<polygon style="fill:#91AABE;" points="320.226,379.798 323.366,365.288 317.846,349.998 312.116,369.288  "/>
	<polygon style="fill:#91AABE;" points="176.766,379.798 173.626,365.288 179.146,349.998 184.876,369.288  "/>
	<path style="fill:#A6C1D8;" d="M324.556,410.908h-0.01l-76.05,21.88l-76.05-21.88c1.88-10.89,3.28-21.42,4.32-31.11   c1.23-11.37,1.96-21.57,2.39-29.8c0.69-13.07,0.64-21.19,0.64-21.19l68.7-40.12l68.71,40.12c0,0-0.05,8.12,0.64,21.19   c0.43,8.23,1.16,18.43,2.38,29.8h0.01C321.276,389.488,322.676,400.018,324.556,410.908z"/>
	<path style="fill:#91AABE;" d="M317.206,328.808l-68.71-40.12l-68.7,40.12c0,0,0.05,8.12-0.64,21.19   c-0.144,2.754-0.325,5.747-0.544,8.913c4.978,0.652,9.998,1.005,15.023,1.005c14.218,0,28.179-2.564,41.496-7.623l13.369-5.078   l13.37,5.079c13.315,5.058,27.276,7.623,41.495,7.623c0.001,0,0.001,0,0.002,0c5.026,0,10.045-0.353,15.023-1.005   c-0.218-3.166-0.399-6.158-0.543-8.913C317.156,336.928,317.206,328.808,317.206,328.808z"/>
	<path style="fill:#A6C1D8;" d="M420.077,138.674L420.077,138.674l0.976-3.766c12.299-47.47-25.917-93.289-78.349-93.936   l-17.844-0.22L308.22,24.159c-32.3-32.212-87.139-32.212-119.44,0l-16.639,16.593l-17.845,0.22   c-52.432,0.646-90.648,46.465-78.349,93.936l0.976,3.766l0,0c-36.43,38.642-22.068,99.111,28.462,119.841l5.521,2.265l3.97,13.336   c13.064,43.888,64.32,67.332,109.602,50.131l24.022-9.125l24.022,9.125c45.282,17.201,96.538-6.243,109.602-50.131l3.97-13.336   l5.521-2.265C442.145,237.785,456.506,177.316,420.077,138.674z"/>
	<g>
		<g>
			<path style="fill:#334151;" d="M170.785,175.736c-4.142,0-7.5-3.358-7.5-7.5v-14.065c0-4.142,3.358-7.5,7.5-7.5     s7.5,3.358,7.5,7.5v14.065C178.285,172.379,174.928,175.736,170.785,175.736z"/>
		</g>
		<g>
			<path style="fill:#334151;" d="M326.214,175.736c-4.142,0-7.5-3.358-7.5-7.5v-14.065c0-4.142,3.358-7.5,7.5-7.5     s7.5,3.358,7.5,7.5v14.065C333.714,172.379,330.356,175.736,326.214,175.736z"/>
		</g>
		<g>
			<path style="fill:#334151;" d="M248.5,183.244c-9.64,0-18.689-4.028-24.828-11.05c-2.726-3.119-2.408-7.857,0.711-10.583     s7.857-2.408,10.583,0.711c3.29,3.764,8.223,5.922,13.534,5.922c5.312,0,10.245-2.159,13.534-5.922     c2.726-3.119,7.464-3.437,10.583-0.711c3.119,2.726,3.437,7.464,0.711,10.583C267.189,179.216,258.14,183.244,248.5,183.244z"/>
		</g>
	</g>
	<path style="fill:#A6C1D8;" d="M166.49,439.321c-5.141,20.49-12.268,40.744-22.147,57.679h208.313   c-9.879-16.935-17.006-37.19-22.147-57.681L166.49,439.321z"/>
	<path style="fill:#91AABE;" d="M348.226,356.188c-9.2-2.45-19.42-4.52-30.38-6.19c0.43,8.23,1.16,18.43,2.38,29.8h0.01   c4.75,0.82,9.3,1.73,13.63,2.73c20.97,4.81,30.87,10.19,34.58,13.22c-3.71,3.02-13.61,8.41-34.58,13.22   c-3,0.69-6.11,1.34-9.31,1.94h-0.01c-21.99,4.17-48.58,6.44-76.05,6.44c-27.47,0-54.06-2.27-76.05-6.44   c-3.21-0.61-6.31-1.25-9.31-1.94c-20.97-4.81-30.87-10.2-34.58-13.22c3.71-3.03,13.61-8.41,34.58-13.22   c4.33-0.99,8.88-1.91,13.63-2.73c1.23-11.37,1.96-21.57,2.39-29.8c-10.96,1.67-21.18,3.74-30.38,6.19   c-33.54,8.92-50.55,22.23-50.55,39.56s17.01,30.64,50.55,39.56c26.82,7.13,62.24,11.06,99.72,11.06c37.49,0,72.91-3.93,99.73-11.06   c33.54-8.92,50.54-22.23,50.54-39.56S381.766,365.108,348.226,356.188z"/>
</g>















</svg>
